<svg width="199" height="44" viewBox="0 0 199 44" fill="none" xmlns="http://www.w3.org/2000/svg">
<path d="M27.0289 33.9627L18.2223 5.76066C18.1846 5.64031 18.1173 5.53668 18.0294 5.46359C17.9415 5.3905 17.8372 5.35142 17.7304 5.35156H12.2576C12.0373 5.35156 11.8429 5.5152 11.7656 5.76066L2.95897 33.9627C2.89806 34.1574 2.91914 34.3746 3.01754 34.5439C3.11594 34.7132 3.27525 34.8176 3.44862 34.8176H9.22129C9.4462 34.8176 9.64768 34.6427 9.7203 34.3831L11.0557 29.5361H18.9299L20.2676 34.3831C20.3379 34.6427 20.5394 34.8176 20.7666 34.8176H26.5393C26.6241 34.8176 26.7077 34.7928 26.7828 34.7453C26.8579 34.6978 26.9223 34.629 26.9705 34.5449C27.0186 34.4608 27.0491 34.3639 27.0593 34.2625C27.0695 34.1611 27.0591 34.0582 27.0289 33.9627V33.9627ZM12.705 23.552L14.994 15.2516L17.2829 23.5548H12.705V23.552Z" fill="url(#paint0_linear_61693:3342)"/>
<path d="M53.2801 5.12012H37.7497C37.4615 5.12012 37.2249 5.40225 37.2249 5.7521V34.2391C37.2249 34.589 37.4615 34.8711 37.7497 34.8711H42.8781C43.1686 34.8711 43.4028 34.589 43.4028 34.2391V21.8252H51.6284C51.9189 21.8252 52.1532 21.5431 52.1532 21.1933V16.476C52.1532 16.1261 51.9189 15.844 51.6284 15.844H43.4028V11.1042H53.2801C53.5706 11.1042 53.8049 10.822 53.8049 10.4722V5.7521C53.8049 5.40225 53.5706 5.12012 53.2801 5.12012V5.12012Z" fill="url(#paint1_linear_61693:3342)"/>
<path d="M86.1777 5.06946H63.7618C63.4712 5.06946 63.237 5.35159 63.237 5.70144V10.777C63.237 11.1269 63.4712 11.409 63.7618 11.409H71.8796V34.1856C71.8796 34.5355 72.1139 34.8176 72.4044 34.8176H77.5351C77.8256 34.8176 78.0599 34.5355 78.0599 34.1856V11.409H86.1777C86.4682 11.409 86.7025 11.1269 86.7025 10.777V5.70144C86.7025 5.35159 86.4682 5.06946 86.1777 5.06946V5.06946Z" fill="url(#paint2_linear_61693:3342)"/>
<path d="M113.132 11.0365C113.42 11.0365 113.656 10.7544 113.656 10.4045V5.68728C113.656 5.33743 113.42 5.0553 113.132 5.0553H96.7813C96.4908 5.0553 96.2565 5.33743 96.2565 5.68728V34.1743C96.2565 34.5241 96.4908 34.8063 96.7813 34.8063H113.134C113.422 34.8063 113.659 34.5241 113.659 34.1743V29.457C113.659 29.1072 113.422 28.825 113.134 28.825H102.437V22.604H110.665C110.953 22.604 111.19 22.3219 111.19 21.972V17.2548C111.19 16.9049 110.953 16.6228 110.665 16.6228H102.437V11.0365H113.132V11.0365Z" fill="url(#paint3_linear_61693:3342)"/>
<path d="M145.886 33.754L140.004 24.3336C143.052 22.8185 145.2 19.2326 145.2 15.0598C145.2 9.52156 141.421 5.01306 136.775 5.01306H127.905C127.87 5.01306 127.84 5.02999 127.807 5.03845H126.294C126.003 5.03845 125.769 5.32059 125.769 5.67043V34.1546C125.769 34.5045 126.003 34.7866 126.294 34.7866H131.422C131.712 34.7866 131.947 34.5045 131.947 34.1546V25.1038H133.971L139.875 34.5581C139.98 34.7245 140.144 34.8233 140.318 34.8233H145.446C145.657 34.8233 145.849 34.6794 145.94 34.4537C146.034 34.228 146.013 33.9571 145.886 33.754V33.754ZM136.379 19.1818C136.295 19.1903 136.211 19.1987 136.126 19.1987H132.033C132.022 19.1987 132.012 19.1874 132.001 19.1818C131.98 19.1762 131.958 19.1705 131.944 19.1536C131.929 19.1388 131.917 19.1203 131.909 19.0994C131.9 19.0784 131.896 19.0556 131.895 19.0323V11.0818C131.895 11.0338 131.914 10.9915 131.944 10.9604C131.958 10.9463 131.977 10.9407 131.996 10.935C132.01 10.9294 132.019 10.9153 132.033 10.9153H136.124C136.222 10.9153 136.321 10.9238 136.417 10.935C138.108 11.1213 139.439 12.8987 139.439 15.057C139.441 17.2351 138.09 19.0182 136.379 19.1818Z" fill="url(#paint4_linear_61693:3342)"/>
<g filter="url(#filter0_d_61693:3342)">
<path d="M188.758 28.8074C190.191 28.5272 190.621 25.6679 192.012 25.0492C192.709 24.7108 192.833 22.4001 192.012 22.7384C190.701 23.3024 190.066 26.1105 188.758 26.3908C187.939 26.5036 188.021 28.9202 188.758 28.8074Z" fill="white"/>
<path d="M188.84 18.177C191.009 17.7258 193.424 16.6593 194.696 14.0718C195.106 13.2275 194.449 11.1459 193.835 12.3833C192.77 14.5196 190.519 15.3639 188.8 15.7604C188.021 15.9244 188.103 18.3445 188.84 18.177Z" fill="white"/>
<path d="M162.063 28.8073C160.63 28.527 160.068 25.9396 158.677 25.3209C157.981 24.9826 157.857 22.5358 158.678 22.8742C159.988 23.4382 160.755 26.1104 162.063 26.3907C162.884 26.5035 162.842 28.9201 162.063 28.8073Z" fill="white"/>
<path d="M161.984 18.177C159.854 17.7258 157.399 16.6593 156.128 14.0718C155.717 13.2275 156.374 11.1459 156.988 12.3833C158.011 14.5196 160.304 15.3639 162.023 15.7604C162.842 15.9244 162.76 18.3445 161.984 18.177Z" fill="white"/>
<path d="M174.551 12.9985L162.391 15.3058C161.777 15.4186 161.327 16.1501 161.287 16.9943V27.4572C161.287 28.1887 161.615 28.8074 162.105 29.0877L171.727 34.0953C174.347 35.4454 177.213 35.4454 179.835 34.0953L189.496 29.0877C189.989 28.8074 190.315 28.1887 190.315 27.4572V16.9943C190.315 16.1501 189.822 15.4186 189.21 15.3058L177.051 12.9985C176.19 12.8311 175.372 12.8311 174.551 12.9985Z" fill="white"/>
</g>
<defs>
<filter id="filter0_d_61693:3342" x="152" y="12" width="46.8234" height="31.1079" filterUnits="userSpaceOnUse" color-interpolation-filters="sRGB">
<feFlood flood-opacity="0" result="BackgroundImageFix"/>
<feColorMatrix in="SourceAlpha" type="matrix" values="0 0 0 0 0 0 0 0 0 0 0 0 0 0 0 0 0 0 127 0" result="hardAlpha"/>
<feOffset dy="4"/>
<feGaussianBlur stdDeviation="2"/>
<feComposite in2="hardAlpha" operator="out"/>
<feColorMatrix type="matrix" values="0 0 0 0 0 0 0 0 0 0 0 0 0 0 0 0 0 0 0.25 0"/>
<feBlend mode="normal" in2="BackgroundImageFix" result="effect1_dropShadow_61693:3342"/>
<feBlend mode="normal" in="SourceGraphic" in2="effect1_dropShadow_61693:3342" result="shape"/>
</filter>
<linearGradient id="paint0_linear_61693:3342" x1="14.9939" y1="5.35156" x2="14.9939" y2="34.8176" gradientUnits="userSpaceOnUse">
<stop stop-color="#FF008E"/>
<stop offset="1" stop-color="#811EFF"/>
</linearGradient>
<linearGradient id="paint1_linear_61693:3342" x1="45.5149" y1="5.12012" x2="45.5149" y2="34.8711" gradientUnits="userSpaceOnUse">
<stop stop-color="#FF008E"/>
<stop offset="1" stop-color="#811EFF"/>
</linearGradient>
<linearGradient id="paint2_linear_61693:3342" x1="74.9697" y1="5.06946" x2="74.9697" y2="34.8176" gradientUnits="userSpaceOnUse">
<stop stop-color="#FF008E"/>
<stop offset="1" stop-color="#811EFF"/>
</linearGradient>
<linearGradient id="paint3_linear_61693:3342" x1="104.958" y1="5.0553" x2="104.958" y2="34.8063" gradientUnits="userSpaceOnUse">
<stop stop-color="#FF008E"/>
<stop offset="1" stop-color="#811EFF"/>
</linearGradient>
<linearGradient id="paint4_linear_61693:3342" x1="135.884" y1="5.01306" x2="135.884" y2="34.8233" gradientUnits="userSpaceOnUse">
<stop stop-color="#FF008E"/>
<stop offset="1" stop-color="#811EFF"/>
</linearGradient>
</defs>
</svg>
